# xmcd
#
# Track frame offsets: 
#        150
#        18673
#        46469
#        96390
#        108520
#        124597
#        173262
#
# Disc length: 2921 seconds
#
# Revision: 0
# Processed by: cddbd v1.5.2PL0 Copyright (c) Steve Scherf et al.
# Submitted via: ExactAudioCopyFreeDBPlugin 1.0
#
DISCID=530b6707
DTITLE=Seventh Passion - 7 Songs
DYEAR=2015
DGENRE=Blues Rock
TTITLE0=Side By Side With The Blues
TTITLE1=Ugly MF
TTITLE2=Travelah
TTITLE3=Springtime Muse
TTITLE4=Walking Blues
TTITLE5=Memoir Of The Mountain
TTITLE6=7Songs
EXTD=
EXTT0=
EXTT1=
EXTT2=
EXTT3=
EXTT4=
EXTT5=
EXTT6=
PLAYORDER=
